# xmcd CD database file
#
# Track frame offsets:
#	150
#	12676
#	26627
#	38588
#	52464
#	71100
#	86476
#	103727
#	119853
#	126079
#	141097
#	148523
#	156249
#	173875
#	178601
#	195627
#	212088
#	222739
#	230765
#
# Disc length: 3192 seconds
#
# Revision: 0
# Processed by: cddbd v1.5.2PL0 Copyright (c) Steve Scherf et al.
# Submitted via: CDex 1.51
#
DISCID=310c7613
DTITLE=Honeyboy Edwards - Roamin' and Ramblin'
DYEAR=2008
DGENRE=Blues
TTITLE0=Apron Strings
TTITLE1=Crawling Kingsnake
TTITLE2=Trouble Everywhere I Go
TTITLE3=I Was In New Orleans Last Night
TTITLE4=How Long
TTITLE5=Maxwell Street Shuffle
TTITLE6=The Army Blues
TTITLE7=Roamin' and Ramblin'
TTITLE8=Talking About Little Walter
TTITLE9=Smoky Mountains
TTITLE10=Strollin' Down Highway 61
TTITLE11=Low Down Dog
TTITLE12=Little Boy Blue
TTITLE13=Freight Train Tale
TTITLE14=Riding The Rails
TTITLE15=She Worries Me All The Time
TTITLE16=Boogie Rambler
TTITLE17=Shufflin' The Blues Conversation
TTITLE18=Jump Out
EXTD=YEAR: 2008
EXTT0=
EXTT1=
EXTT2=
EXTT3=
EXTT4=
EXTT5=
EXTT6=
EXTT7=
EXTT8=
EXTT9=
EXTT10=
EXTT11=
EXTT12=
EXTT13=
EXTT14=
EXTT15=
EXTT16=
EXTT17=
EXTT18=
PLAYORDER=
